<svg id="Bold" enable-background="new 0 0 32 32" height="512" viewBox="0 0 32 32" width="512" xmlns="http://www.w3.org/2000/svg"><path d="m26 32h-20c-3.314 0-6-2.686-6-6v-20c0-3.314 2.686-6 6-6h20c3.314 0 6 2.686 6 6v20c0 3.314-2.686 6-6 6z" fill="#fff9dd"/><path d="m23.543 17.702c1.159-5.207-3.403-9.937-8.76-9.029-2.907-1.805-6.78.235-6.78 3.695 0 .805.222 1.558.608 2.207-1.076 5.219 3.522 9.881 8.874 8.911 3.785 2.001 7.965-1.99 6.058-5.784zm-5.091 3.14c-1.405.578-3.718.581-5.117-.151-1.995-1.064-2.35-3.459-.629-3.459 1.298 0 .886 1.513 2.197 2.129.602.278 1.894.306 2.645-.2.742-.497.674-1.278.271-1.651-1.069-.987-4.127-.595-5.524-2.322-.608-.75-.722-2.071.024-3.03 1.301-1.675 5.12-1.776 6.762-.512 1.516 1.173 1.107 2.731-.117 2.731-1.472 0-.698-1.925-3.073-1.925-1.722 0-2.399 1.225-1.187 1.821 1.644.816 5.833.544 5.833 3.735-.004 1.327-.818 2.317-2.085 2.834z" fill="#ffd200"/></svg>