<svg id="Bold" enable-background="new 0 0 32 32" height="512" viewBox="0 0 32 32" width="512" xmlns="http://www.w3.org/2000/svg"><path d="m26 32h-20c-3.314 0-6-2.686-6-6v-20c0-3.314 2.686-6 6-6h20c3.314 0 6 2.686 6 6v20c0 3.314-2.686 6-6 6z" fill="#fff9dd"/><g fill="#ffe777"><path d="m12.296 17.893 6.892 1.464.288-1.393-6.892-1.475z"/><path d="m12.143 19.714h7.044v1.418h-7.044z"/><path d="m13.2 14.554 6.381 3.017.592-1.296-6.385-3.025z"/></g><path d="m19.582 17.572-.001-.001v.001z" fill="#ffd200"/><path d="m9.333 18.286v5.714h12.662v-5.714h-1.409v4.285h-9.844v-4.285z" fill="#ffd200"/><path d="m14.968 11.375 5.406 4.582.898-1.1-5.406-4.582z" fill="#ffe777"/><path d="m22.667 13.725-4.202-5.725-1.127.857 4.202 5.725z" fill="#ffe777"/></svg>